<svg width="72" height="72" viewBox="0 0 72 72" fill="none" xmlns="http://www.w3.org/2000/svg">
<g id="Group 427321164">
<g id="Group 427321163">
<g id="Ellipse 1922" filter="url(#filter0_d_8991_65707)">
<circle cx="36" cy="26" r="16" fill="white"/>
</g>
</g>
<g id="Camera">
<path id="Camera_2" fill-rule="evenodd" clip-rule="evenodd" d="M40.352 21.5891C40.384 21.6451 40.44 21.685 40.512 21.685C42.432 21.685 44 23.2513 44 25.1691V29.9159C44 31.8337 42.432 33.4 40.512 33.4H31.488C29.56 33.4 28 31.8337 28 29.9159V25.1691C28 23.2513 29.56 21.685 31.488 21.685C31.552 21.685 31.616 21.6531 31.64 21.5891L31.688 21.4932C31.7156 21.4352 31.7439 21.3756 31.7726 21.3151C31.9773 20.884 32.2037 20.407 32.344 20.1267C32.712 19.4075 33.336 19.008 34.112 19H37.88C38.656 19.008 39.288 19.4075 39.656 20.1267C39.782 20.3785 39.974 20.784 40.159 21.1748C40.1972 21.2555 40.2351 21.3354 40.272 21.4133L40.352 21.5891ZM39.768 24.6579C39.768 25.0574 40.088 25.3771 40.488 25.3771C40.888 25.3771 41.216 25.0574 41.216 24.6579C41.216 24.2583 40.888 23.9307 40.488 23.9307C40.088 23.9307 39.768 24.2583 39.768 24.6579ZM34.616 25.8966C34.992 25.5211 35.48 25.3213 36 25.3213C36.52 25.3213 37.008 25.5211 37.376 25.8887C37.744 26.2563 37.944 26.7437 37.944 27.2631C37.936 28.3339 37.072 29.205 36 29.205C35.48 29.205 34.992 29.0052 34.624 28.6376C34.256 28.27 34.056 27.7826 34.056 27.2631V27.2551C34.048 26.7517 34.248 26.2642 34.616 25.8966ZM38.216 29.4849C37.648 30.0523 36.864 30.4039 36 30.4039C35.16 30.4039 34.376 30.0762 33.776 29.4849C33.184 28.8856 32.856 28.1024 32.856 27.2634C32.848 26.4323 33.176 25.6492 33.768 25.0498C34.368 24.4505 35.16 24.1229 36 24.1229C36.84 24.1229 37.632 24.4505 38.224 25.0418C38.816 25.6412 39.144 26.4323 39.144 27.2634C39.136 28.1344 38.784 28.9175 38.216 29.4849Z" fill="#06524C"/>
</g>
</g>
<defs>
<filter id="filter0_d_8991_65707" x="0" y="0" width="72" height="72" filterUnits="userSpaceOnUse" color-interpolation-filters="sRGB">
<feFlood flood-opacity="0" result="BackgroundImageFix"/>
<feColorMatrix in="SourceAlpha" type="matrix" values="0 0 0 0 0 0 0 0 0 0 0 0 0 0 0 0 0 0 127 0" result="hardAlpha"/>
<feOffset dy="10"/>
<feGaussianBlur stdDeviation="10"/>
<feComposite in2="hardAlpha" operator="out"/>
<feColorMatrix type="matrix" values="0 0 0 0 0.760784 0 0 0 0 0.780392 0 0 0 0 0.792157 0 0 0 0.4 0"/>
<feBlend mode="normal" in2="BackgroundImageFix" result="effect1_dropShadow_8991_65707"/>
<feBlend mode="normal" in="SourceGraphic" in2="effect1_dropShadow_8991_65707" result="shape"/>
</filter>
</defs>
</svg>
